<svg xmlns="http://www.w3.org/2000/svg" viewBox="0 0 324 70">
  <path d="M23.1 36.26c-5.32 10.2-6.03 10.54-3.7 1.76 2.6-9.8 4.86-21.12 4.37-21.87-.87-1.33-.96-1.21-14.62 19.6-5.31 8.1-5.52 7.57-2.32-5.92 2.73-11.5 3.3-15.8 2.3-17.31-1.23-1.88-4.54-1.88-6.77 0-1.93 1.62-1.1 3.49 1.16 2.56 5.07-2.1 5.1-.97.42 17.08C.53 45.3.33 46.36 1.04 47.06c1.69 1.7 2.9.24 13.53-16.13 3.58-5.53 4.59-6.7 5.25-6.16.93.77.36 3.5-3.48 16.83-1.75 6.07-1.64 8.64.35 8.64 1.42 0 2.23-1.24 6.64-10.18C36.4 13.6 50.08-4.16 49.66 5.89c-.16 3.9 1.67 3.57 2.3-.42.7-4.41-2.2-6.33-6.06-4.01-4.2 2.5-12.76 15.6-22.8 34.8zm229.28-4.2c-8.35 14.97-9.26 16.36-9.8 14.95-.2-.52-.25-.2 2.55-13.44 3.46-16.25 2.86-18.47-4.27-15.76-2.45.94-3.9 2.1-3.58 2.89.32.85 1.62.7 4.2-.52 4.43-2.07 4.63.49 1.24 15.65-2.95 13.22-3.03 14.75-.8 14.75 2.1 0 4-2.56 9.22-12.41 6.46-12.2 11.3-20.9 13.53-24.31 3.65-5.6 8.88-10.26 10.8-9.65.69.22.72.32.8 2.92.06 2.17 1.35 2.48 1.9.45 1.38-4.93-1.82-7.28-6.03-4.45-4.86 3.28-8.04 7.94-19.76 28.94zM91.86 34.2l-.42 2.4-2.4 1.47c-5.98 3.63-9.1 4.63-10.5 3.36-1.27-1.15-.88-2.02 1.54-3.44 6.24-3.65 7.02-8.15 1.33-7.68-2.48.2-3.74 1.52-5.13 5.3-.94 2.59-1.46 3.19-3.76 4.37-.88.46-1.78.63-2.74.77l.1-2.8c.18-4.7-.93-6.31-2.9-4.23-.56.58-2.26 2.1-3.77 3.35-2.98 2.47-3.27 2.77-3.27 3.42-.02 1.32 2.9-.37 6.26-3.62l1.6-1.55.24 1.6c.52 3.45-.95 5.94-4 6.76-3.36.9-3.64 1.26-2.36 2.89 1.37 1.74 3.9.93 6.3-2 1.17-1.4 1.99-1.93 5.57-3.52.76-.33 1.5-.67 1.64-.74.14-.07.26.12.26.43 0 4.38 5.53 4.4 13.08.03l3.26-1.88.96 2c3.13 6.52 8.7 6.72 16.34.6l2.36-1.9.82 1.44c3.23 5.74 6.5 6.4 12.1 2.4 6.4-4.56 7.34-6.96 1.15-2.97-6.12 3.95-9 3.67-11.15-1.1-.87-1.9-.86-1.91 1.02-4.2 5.34-6.44 8.22-12.8 8.55-18.9.2-3.48-.05-4.16-1.37-3.83-3.32.84-10.45 14.82-11.22 22-.3 2.75-.66 3.23-4.42 5.83-5.44 3.76-8.93 3.85-11.28.3-1.57-2.38-1.54-3.14.23-5.22 4.8-5.67 7.85-12.04 8.6-18.1.68-5.27-.5-6.32-3.53-3.2-2.96 3.04-8.1 14.45-9.1 20.16zm213.37 1.22c-.14 1.5-.46 2.73-.84 3.2-1.2 1.53-6.55 3.8-6.1 2.6 1.15-2.97 2.38-7.25 2.2-7.68-.31-.86-1.23-.64-1.64.4-2.72 6.76-6.12 10.37-8.55 9.07-1.07-.58-.9-1.86.67-4.67 1.6-2.9 1.76-3.97.59-3.97-.65 0-1.07.58-2.4 3.25-1.35 2.72-1.96 3.54-3.74 5.02-3.53 2.94-4.43 2.02-3.57-3.7.27-1.81.5-3.67.5-4.12 0-2.18-3.1-.87-6.23 2.62-2.6 2.9-2.53 2.9-1.7-.3 2.14-8.1-.9-7.52-9.13 1.78-5.5 6.2-10.95 6.85-8.67 1.03 1.53-3.9.03-5.36-1.93-1.9-2.45 4.34-1.33 7.7 2.54 7.7 3.25-.02 5.5-1.5 9.86-6.44 2.58-2.92 5.48-5.52 5.8-5.2.17.17-1.28 5.84-2.3 9.02-.51 1.62-.4 3.3.26 3.55.63.25.5.4 4.4-4.9 4.2-5.68 5.1-6.32 4.66-3.27-.82 5.65-.1 7.93 2.54 7.93 1.2 0 4-1.8 4.68-3.02.3-.53.4-.5 1.07.35.93 1.18 3.2 1.29 5.46.26l1.48-.68c-1.12 3.6-2.1 7.42-5.45 9.18l-1.86 1.2-1.2-1.06c-2.07-1.82-4.66-1.12-7.72 2.07-6 6.26-4.5 14.8 2.62 14.8 4.4 0 7.2-3.3 11-13.02 1.77-4.5 1.65-4.35 4.99-5.98 1.76-.86 1.22-1.27-.91-.68-1.76.49-1.77.47-.4-3.15 1.15-3.06 1.26-3.2 2.38-3.4.64-.1 2.25-.75 3.57-1.46 3.22-1.7 3.36-1.68 4.46.92 2.79 6.55 8.23 6.27 15.19-.8 2.83-2.87 1.6-2.63-3.48.69-3.88 2.53-5.8 2.93-7.71 1.63-3.61-2.46-3.63-5.25-.07-9.92 4.34-5.68 6.8-11.34 7.2-16.57.33-4.22-.56-5.07-3-2.87-4.03 3.65-8.94 14.2-9.52 20.5zM94.5 33.55c-.74-.74 1.97-8.55 4.42-12.7 2.04-3.46 3.07-3.8 3.06-1.03 0 4.24-6 15.22-7.48 13.73zm19.53.13c-1.5 0 2.94-11.64 5.58-14.63 1.26-1.44 1.6-1.52 1.88-.43.8 3.2-5.07 15.06-7.46 15.06zm193.79 1.54c-1.42-.88 2.27-11.07 5.23-14.45 1.38-1.57 2.39-1.64 2.39-.17 0 3.7-6.17 15.5-7.62 14.62zm-48.21-2.3c1.49.13 2.2-.56 1.9-1.82-.23-.9-1.87-1.23-2.91-.56-1.02.64-.33 2.27 1 2.38zm-88.88 12.83c2.17 0 5.33-2.14 6.86-4.66 1-1.67 1.27-1.88 2.6-2.1 1.84-.27 1.85-.26 1.39 1.54-1.13 4.44 1.79 6.1 6 3.4 3.5-2.24 3.36-2.22 3.28-.3-.2 4.48 2 3.98 8.03-1.84 3.44-3.33 6.5-5.22 7.04-4.35.1.14-.37 1.8-1.03 3.68-1.84 5.3-1.57 7.06 1.12 7.04 3.1-.03 10.5-6.67 7.97-7.16-.28-.06-1.2.45-2.01 1.14-4.55 3.8-6 3.46-4.47-1.06 1.8-5.3 1.16-7.4-2.23-7.4-1.48 0-4.8 2.97-9.73 8.7-2.82 3.3-2.86 1.24-.1-5.25 2.7-6.36 1.6-7.76-1.7-2.14-2.04 3.46-7.78 8.56-9.32 8.27-1.52-.28-.48-4.87 1.86-8.18 2.39-3.4 1.73-5-.83-2.03-3.1 3.6-3.68 4.08-5 4.08-1.25 0-1.26 0-1.04-1.18.75-3.97-3.23-5.82-7.15-3.34-5.84 3.7-6.95 13.14-1.54 13.14zM78.68 36c-.25-.25.8-2.7 1.5-3.45.72-.8 2.27-.67 2.44.2.2 1.1-3.24 3.94-3.94 3.25zm-52.23 8.62c2.08 3.32 6.96 3.67 9.97.73 1.87-1.83 1.98-3.76.13-2.2-3.02 2.53-6.82 2.46-8.17-.15-.61-1.17-.44-1.36 3.3-3.46 3.42-1.94 4.87-4.5 3.5-6.2-.95-1.17-3.94-1.37-5.54-.37-2.8 1.76-4.8 9.07-3.2 11.65zm133-3.65c-2.91 1.5-3.52.42-2.1-3.7 1.54-4.42.25-5.7-1.65-1.63-2.56 5.46-.22 9.44 4.24 7.2 1.8-.9 1.8.55-.04 4.22-1.93 3.86-3.35 4.6-7.3 3.79-8.58-1.78-15.27 12.4-7.71 16.36 5.2 2.73 8.54.3 12.97-9.42 2.66-5.83 4.05-7.94 6.02-9.17 1.48-.93 1.43-.93-1.51-.22-1.12.27-.87-1 1.04-5.22 2.3-5.1 3.06-7.36 3.06-9.18 0-2.66-.78-2.22-2.6 1.48-1.78 3.6-2.52 4.52-4.4 5.49zm16.64-3.32c-1.1.24-1.3.66-.48.98 1.7.65-2.22 4.7-4.57 4.7-2.5 0-1.74-4.8 1.2-7.66 2.22-2.16 3.78-2.75 4.72-1.8 1.1 1.1.55 3.47-.87 3.78zm-146.3.5c-.68 0-.7-.37-.1-1.83.9-2.15 2.97-3.1 3.27-1.51.14.72-2.34 3.35-3.17 3.35zM150.67 55.2c-2.33 2.47-2.55 4.77-.47 4.97 2.03.2 3.72-1.65 4.37-4.76.27-1.3 1.4-2.76 2.13-2.76 1.9 0-2.92 10.06-5.68 11.9-6.2 4.1-9.94-4.78-4.2-9.97 2.27-2.05 3.88-2.62 5-1.8.64.47.59.58-1.15 2.42zm134.43.2c-2.14 1.15-3.75 5.76-2.22 6.35 2.25.86 4.4-1.06 5.14-4.62.27-1.3 1.4-2.76 2.13-2.76 1.94 0-2.96 10.1-5.82 12-2.72 1.79-6.28.86-7.18-1.87-1.72-5.2 5.24-13.62 8.25-10 .35.42.3.59-.3.9zm-132.88 1.94c-1.03 1.2-1.52.56-.55-.7 1.62-1.5 1.39-.45.55.7zm132.8 2.2c-.41 0-.33-.84.14-1.3.54-.55.97-.53.97.03 0 .5-.68 1.28-1.1 1.28z"/>
</svg>
